<?xml version="1.0" encoding="utf-8"?>
<!-- Generator: Adobe Illustrator 25.2.1, SVG Export Plug-In . SVG Version: 6.00 Build 0)  -->
<svg version="1.1" id="Layer_1" xmlns="http://www.w3.org/2000/svg" xmlns:xlink="http://www.w3.org/1999/xlink" x="0px" y="0px"
	 viewBox="0 0 1569.62 500" style="enable-background:new 0 0 1569.62 500;" xml:space="preserve">
<style type="text/css">
	.st0{fill:#AAC94B;}
	.st1{fill:#FFFFFF;}
	.st2{fill:#6E8912;}
	.st3{fill:none;}
	.st4{font-family:'Montserrat-Black';}
	.st5{font-size:117px;}
	.st6{fill:#75946C;}
</style>
<circle class="st0" cx="521.47" cy="251.21" r="242.97"/>
<g>
	<path class="st1" d="M448.32,422.7c-5.07,0.07-9.67-0.86-14.21-2.43c-10.94-3.79-13.51-14.6-11.88-22.41
		c1.26-6.02,5-10.46,9.23-14.61c0.16-0.15,0.34-0.4,0.51-0.4c3.08-0.1,5.77-2.14,8.91-1.83c3.29,0.33,5.02,3.85,3.32,6.68
		c-0.87,1.45-2.21,2.45-3.6,3.37c-1.67,1.09-3.34,2.17-4.75,3.59c-3.16,3.19-4.84,6.88-3.4,11.4c1.53,4.82,4.65,7.97,9.86,8.6
		c4.42,0.54,8.85,0.5,13.15-0.78c10.14-3.02,19.08-8.1,26.3-15.93c2.74-2.98,4.87-6.31,5.2-10.48c0.4-5.01-1.18-9.35-4.63-13
		c-3.58-3.79-7.78-6.87-11.9-10.02c-4.47-3.43-9.02-6.76-13.48-10.19c-1.57-1.21-3.06-2.54-4.51-3.9
		c-9.4-8.77-11.84-19.52-8.95-31.75c1.31-5.53,3.67-10.64,6.63-15.45c8.44-13.76,19.51-25.08,32.73-34.23
		c6.85-4.74,14.49-7.97,22.75-9.5c2.89-0.53,5.8-0.31,8.51,0.62c6.37,2.21,8.43,4.92,9.23,11.89c0.46,4.04-0.55,7.9-2.02,11.63
		c-3.08,7.77-7.5,14.75-12.71,21.23c-5.84,7.26-12.59,13.61-20.03,19.23c-2.3,1.73-4.71,3.3-7.4,4.36
		c-1.33,0.52-2.72,1.09-4.17,0.44c-4.41-1.98-6.35-4.57-2.48-8.75c1.82-1.97,4.05-3.39,6.22-4.92c9.89-7.02,18.73-15.11,25.42-25.33
		c2.18-3.33,4.05-6.83,4.9-10.79c0.23-1.09,0.38-2.17,0.36-3.28c-0.1-5.11-4.61-8.56-9.54-7.17c-1.9,0.53-3.79,1.25-5.54,2.16
		c-14.36,7.45-25.96,17.86-33.89,32.09c-1.61,2.89-2.91,5.94-4.13,9.02c-4.9,12.41,0.74,24.29,8.33,30.44
		c4.64,3.76,9.34,7.43,14.21,10.87c3.97,2.8,7.81,5.78,11.62,8.8c3.41,2.7,6.2,5.97,8.73,9.47c3.42,4.72,4.02,9.92,2.51,15.44
		c-1.74,6.36-5.41,11.61-9.96,16.19c-10.72,10.78-23.76,16.99-38.79,19.12C452.68,422.5,450.38,422.77,448.32,422.7z"/>
	<path class="st1" d="M554.37,377.88c-2.31,3.72-4.37,7.12-6.92,10.18c-3.47,4.16-7.57,7.4-12.91,8.83
		c-6.98,1.87-13.77-2.02-15.8-8.91c-2.36-7.98-2.49-16.1-1.63-24.28c1.1-10.47,4.24-20.5,6.55-30.71c0.09-0.41,0.17-0.83,0.3-1.45
		c-1.96-0.13-3.5,0.85-5.09,1.35c-3.18,0.99-5.63-0.39-7.95-2.12c-1.35-1.01-1.2-2.58,0.14-4.05c1.45-1.59,3.34-2.51,5.31-3.28
		c3.92-1.52,7.72-3.28,11.28-5.53c1.56-0.99,2.54-2.25,3.13-4.05c3.04-9.36,6.9-18.38,11.44-27.11c0.88-1.7,1.97-3.18,3.43-4.4
		c1.76-1.47,2.63-1.6,4.48-0.62c2,1.05,3.19,2.91,2.91,4.74c-0.17,1.08-0.52,2.14-0.82,3.2c-1.42,5-3.42,9.78-5.26,14.63
		c-0.34,0.91-0.9,1.76-0.87,3.06c1.07,0.05,1.79-0.69,2.57-1.12c5.49-3.08,11.01-6.1,17.2-7.61c1.56-0.38,3.04-0.54,4.51,0.2
		c2.78,1.41,3.15,4.73,0.76,6.72c-1.46,1.21-3.1,2.19-4.85,2.82c-5.78,2.09-10.77,5.56-15.88,8.83c-1.31,0.84-2.61,1.45-4.21,1.73
		c-4.18,0.74-7.06,2.91-8.43,7.3c-3.74,12.02-7.52,24-8.77,36.61c-0.5,5.06-0.99,10.12-0.34,15.2c0.87,6.78,4.05,8.7,10.44,4.53
		c1.97-1.29,3.39-3.16,4.7-5.08c3.38-4.95,5.85-10.38,8.28-15.82c0.31-0.69,0.43-1.48,0.52-2.24c1.99-16.85,8.8-31.62,19.86-44.33
		c4.19-4.82,9.34-8.85,15.84-10.36c6.08-1.41,10.39,1.28,12.07,7.29c1.14,4.08,1.53,8.27,1.12,12.47
		c-1.45,14.88-5.63,28.98-12.6,42.22c-2.33,4.42-5.26,8.42-8.97,11.82c-2.81,2.58-6.02,4.46-9.63,5.68c-5.4,1.83-10,0.66-13.72-3.71
		c-0.36-0.42-0.69-0.86-1.04-1.29C555.22,378.88,554.94,378.56,554.37,377.88z M564.34,359.37c0.08,2.62,0,4.6,0.52,6.55
		c0.89,3.36,1.78,4.12,5.21,4.39c2.13,0.17,3.89-0.66,5.48-1.93c1.39-1.11,2.61-2.4,3.54-3.91c2.59-4.22,5.32-8.32,5.93-13.5
		c0.22-1.89,0.61-2.91-1.56-3.7c-2.12-0.78-2.19-1.36-1.19-3.58c0.95-2.11,2.04-4.16,3.07-6.23c2.02-4.06,3.93-8.15,4.7-12.67
		c0.28-1.66,0.32-3.28-0.25-4.89c-0.93-2.63-3.02-3.44-5.49-2.07c-1.27,0.7-2.34,1.67-3.3,2.74
		C570.99,331.82,565.17,344.86,564.34,359.37z"/>
	<path class="st1" d="M619.95,327.84c1.3-0.43,1.54-1.37,2-2.08c7.77-12.12,16.72-23.31,26.63-33.75c1.06-1.12,2.2-2.16,3.34-3.21
		c1.35-1.25,2.88-1.43,4.61-0.81c2.71,0.98,3.28,2.18,2.04,4.75c-0.97,2-2.3,3.76-3.66,5.51c-2.18,2.79-4.26,5.64-5.8,8.84
		c-0.68,1.41-1.22,2.84-1.19,4.43c0.04,2.69,1.49,3.83,4.11,3.11c1.71-0.47,3.25-1.37,4.72-2.37c2.85-1.93,5.41-4.2,7.78-6.68
		c3.39-3.56,6.86-6.97,9.45-11.31c3.56-5.97,7.98-11.39,13.41-15.88c3.09-2.56,6.48-4.58,10.38-5.67c6-1.67,11.01,1.86,11.28,8.05
		c0.23,5.28-0.79,10.3-3.31,15c-6.2,11.57-15.25,20.46-26,27.77c-1.09,0.74-2.2,1.48-3.28,2.23c-0.17,0.12-0.26,0.35-0.38,0.53
		c1.99,6.07,7.02,7.14,12.6,5.97c5.42-1.14,10.03-3.94,14.18-7.54c7.12-6.19,12.17-13.93,16.63-22.12c0.79-1.45,1.51-2.95,2.58-4.23
		c0.89-1.07,1.95-1.77,3.42-1.67c1.87,0.13,2.71,0.99,2.86,2.91c0.13,1.71-0.36,3.28-0.99,4.82c-1.41,3.49-3.19,6.81-5.29,9.92
		c-5.91,8.71-12.32,16.99-20.95,23.26c-5.04,3.66-10.32,6.85-16.58,7.93c-3.84,0.66-7.69,0.8-11.46-0.51
		c-4.4-1.52-7.2-4.49-8.5-8.98c-1.12-3.86-1.54-7.78-1.37-11.78c0.06-1.43,0.13-2.86,0.21-4.35c-1.26-0.18-1.74,0.85-2.41,1.43
		c-3.39,2.93-7.14,5.18-11.47,6.41c-2.16,0.61-4.32,0.77-6.54,0.19c-3.77-0.99-5.49-3.41-5.05-7.31c0.07-0.62,0.35-1.25-0.15-2.09
		c-1.6,1.36-2.74,2.97-3.84,4.59c-9.19,13.52-16.27,28.02-20.35,43.92c-0.41,1.6-0.86,3.2-1.31,4.79c-0.94,3.29-3.28,4.85-6.54,5.18
		c-2.85,0.29-4.46-0.95-4.71-3.79c-0.17-1.97-0.14-3.98,0.07-5.95c1.49-14.17,3.54-28.24,7.87-41.87
		c1.87-5.89,3.93-11.72,7.01-17.12c1.15-2.02,2.46-3.92,4.01-5.66c1.93-2.16,4.27-2.99,7.11-2.68c2.18,0.24,2.97,0.97,2.8,3.18
		c-0.11,1.42-0.34,2.89-0.88,4.19c-1.46,3.56-2.95,7.13-5.06,10.38C621.98,320.78,620.5,324.01,619.95,327.84z M675.91,317.77
		c10.07-6.53,16.7-14.76,20.62-25.18c0.54-1.43,1.17-2.86,1.26-4.43c0.06-1.18,0.4-2.45-0.88-3.29c-1.29-0.85-2.56-0.58-3.72,0.19
		c-2.77,1.84-5.4,3.9-7.22,6.69C680.94,299.49,678.09,308.1,675.91,317.77z"/>
	<path class="st2" d="M575.87,445.67c-0.61-8.35,2.09-14.83,6.75-20.6c6.23-7.72,14.32-13.06,23.01-17.57
		c15.28-7.93,31.58-13.06,48.21-17.24c10.39-2.61,20.9-4.65,31.46-6.43c0.41-0.07,0.84-0.05,1.47,0.38
		C649.95,404.61,613.14,425.01,575.87,445.67z"/>
</g>
<rect x="427.84" y="160.87" class="st3" width="1133.15" height="101.86"/>
<text transform="matrix(1 0 0 1 427.8447 247.687)" class="st2 st4 st5">NATIVE WELLNES</text>
<g>
	<g>
		<g>
			<circle class="st2" cx="347.75" cy="405.58" r="45.76"/>
			
				<ellipse transform="matrix(0.0709 -0.9975 0.9975 0.0709 -251.5253 541.1255)" class="st2" cx="164.71" cy="405.58" rx="45.76" ry="45.76"/>
		</g>
	</g>
	<path class="st2" d="M427.82,106.67c-1.74-1.97-4.24-3.09-6.86-3.09H91.5c-5.05,0-9.15,4.1-9.15,9.15c0,0.62,0.06,1.23,0.19,1.83
		l36.61,183.03c0.87,4.26,4.62,7.32,8.97,7.32c0.4,0.03,0.81,0.03,1.21,0l274.55-36.61c4.12-0.55,7.36-3.81,7.87-7.94l18.3-146.43
		C430.39,111.3,429.58,108.65,427.82,106.67z M166.21,268.18c-0.5,0.08-1,0.13-1.5,0.13c-4.47,0-8.29-3.24-9.02-7.65l-18.3-109.82
		c-0.68-5.01,2.83-9.62,7.84-10.3c4.8-0.65,9.27,2.55,10.21,7.3l18.3,109.82C174.56,262.64,171.19,267.35,166.21,268.18z
		 M211.29,259.08L211.29,259.08l-0.82,0.07c-4.75,0.02-8.72-3.6-9.15-8.33l-9.15-100.67c-0.47-5.03,3.22-9.5,8.25-9.97
		c0.02,0,0.05,0,0.07-0.01c5.03-0.46,9.48,3.26,9.94,8.29v0l9.15,100.67C220.04,254.17,216.33,258.62,211.29,259.08z M265.38,240.85
		c0,5.05-4.1,9.15-9.15,9.15c-5.05,0-9.15-4.1-9.15-9.15v-91.52c0-5.05,4.1-9.15,9.15-9.15c5.05,0,9.15,4.1,9.15,9.15V240.85z
		 M320.24,150.28L320.24,150.28l-9.15,82.37c-0.49,4.66-4.41,8.2-9.1,8.2h-1.03c-5.03-0.53-8.67-5.04-8.14-10.06
		c0-0.03,0.01-0.06,0.01-0.09l9.15-82.37c0.59-5.03,5.12-8.66,10.16-8.14C317.17,140.74,320.79,145.26,320.24,150.28z
		 M375.03,151.13c-0.03,0.14-0.07,0.28-0.1,0.41l-18.3,73.21c-1.02,4.08-4.68,6.94-8.88,6.94c-5.05,0-9.15-4.1-9.15-9.15
		c0-0.75,0.09-1.49,0.27-2.21l18.3-73.21c1.11-4.93,6.01-8.03,10.94-6.92C373.04,141.31,376.14,146.2,375.03,151.13z"/>
	<path class="st6" d="M384.35,341.52H173.11c-30.51-0.07-56.76-21.59-62.82-51.49L65.69,66.97H18.28c-5.05,0-9.15-4.1-9.15-9.15
		s4.1-9.15,9.15-9.15h54.91c4.35,0,8.1,3.06,8.97,7.32l46.09,230.44c4.32,21.36,23.07,36.74,44.86,36.79h211.24
		c5.05,0,9.15,4.1,9.15,9.15C393.5,337.42,389.41,341.52,384.35,341.52z"/>
</g>
</svg>
